<?xml version="1.0" encoding="UTF-8"?>
<svg xmlns="http://www.w3.org/2000/svg" xmlns:xlink="http://www.w3.org/1999/xlink" width="744px" height="166px" viewBox="0 0 744 166" version="1.1">
<g id="surface1">
<path style="fill-rule:evenodd;fill:rgb(0%,0%,0%);fill-opacity:1;stroke-width:0.319612;stroke-linecap:butt;stroke-linejoin:miter;stroke:rgb(0%,0%,0%);stroke-opacity:1;stroke-miterlimit:4;" d="M 17.875 22.179688 L 41.574219 22.972656 L 42.25 56.488281 L 66.402344 57.390625 L 65.609375 24.210938 L 89.308594 24.550781 L 91.339844 114.601562 L 67.304688 114.601562 L 66.511719 78.265625 L 42.816406 77.136719 L 42.816406 111.105469 L 18.328125 108.734375 Z M 17.875 22.179688 "/>
<path style="fill-rule:evenodd;fill:rgb(0%,0%,0%);fill-opacity:1;stroke-width:0.319612;stroke-linecap:butt;stroke-linejoin:miter;stroke:rgb(0%,0%,0%);stroke-opacity:1;stroke-miterlimit:4;" d="M 131.40625 17.90625 L 111.65625 29.40625 L 112.78125 92.9375 L 134.90625 107.03125 L 162.21875 107.375 L 184 94.28125 L 182.28125 30.65625 L 161.40625 18 Z M 142.8125 35.15625 L 151.5 35.15625 L 158.59375 39.09375 L 159.71875 84.59375 L 153.40625 88.53125 L 143.59375 88.4375 L 136.8125 84.59375 L 136.03125 38.65625 Z M 142.8125 35.15625 "/>
<path style="fill-rule:evenodd;fill:rgb(0%,0%,0%);fill-opacity:1;stroke-width:0.319612;stroke-linecap:butt;stroke-linejoin:miter;stroke:rgb(0%,0%,0%);stroke-opacity:1;stroke-miterlimit:4;" d="M 225.289062 21.277344 L 203.171875 19.246094 L 205.089844 104.671875 L 267.042969 107.945312 L 267.042969 94.515625 L 227.886719 92.144531 Z M 225.289062 21.277344 "/>
<path style="fill-rule:evenodd;fill:rgb(0%,0%,0%);fill-opacity:1;stroke-width:0.319612;stroke-linecap:butt;stroke-linejoin:miter;stroke:rgb(0%,0%,0%);stroke-opacity:1;stroke-miterlimit:4;" d="M 291.757812 27.371094 L 270.089844 25.453125 L 272.007812 107.945312 L 333.621094 115.414062 L 333.285156 99.820312 L 294.125 96.660156 Z M 291.757812 27.371094 "/>
<path style="fill-rule:evenodd;fill:rgb(0%,0%,0%);fill-opacity:1;stroke-width:0.319612;stroke-linecap:butt;stroke-linejoin:miter;stroke:rgb(0%,0%,0%);stroke-opacity:1;stroke-miterlimit:4;" d="M 339.714844 116.632812 L 357.886719 122.503906 L 365.332031 122.503906 L 364.542969 94.515625 L 383.050781 34.933594 L 361.382812 32.902344 L 350.664062 68.449219 L 337.234375 30.871094 L 314.777344 28.953125 L 338.476562 92.144531 Z M 339.714844 116.632812 "/>
<path style="fill-rule:evenodd;fill:rgb(0%,0%,0%);fill-opacity:1;stroke-width:0.319612;stroke-linecap:butt;stroke-linejoin:miter;stroke:rgb(0%,0%,0%);stroke-opacity:1;stroke-miterlimit:4;" d="M 424.578125 103.882812 L 436.878906 136.15625 L 449.066406 136.609375 L 461.027344 50.730469 L 443.648438 49.941406 L 439.246094 82.328125 L 427.738281 48.8125 L 416 47.910156 L 413.179688 80.410156 L 406.523438 47.570312 L 385.082031 45.652344 L 402.121094 133.5625 L 415.550781 134.691406 Z M 424.578125 103.882812 "/>
<path style="fill-rule:evenodd;fill:rgb(0%,0%,0%);fill-opacity:1;stroke-width:0.319612;stroke-linecap:butt;stroke-linejoin:miter;stroke:rgb(0%,0%,0%);stroke-opacity:1;stroke-miterlimit:4;" d="M 491.9375 55.03125 L 473.3125 66.40625 L 476.59375 127.6875 L 497.46875 140.65625 L 522.40625 141.46875 L 542.15625 129.9375 L 539.34375 68.78125 L 518.8125 55.6875 Z M 501.875 71.9375 L 510.90625 71.9375 L 516.875 75.90625 L 519.59375 120.125 L 513.625 123.625 L 504.59375 123.28125 L 497.9375 119 L 495.90625 74.78125 Z M 501.875 71.9375 "/>
<path style="fill-rule:evenodd;fill:rgb(0%,0%,0%);fill-opacity:1;stroke-width:0.319612;stroke-linecap:butt;stroke-linejoin:miter;stroke:rgb(0%,0%,0%);stroke-opacity:1;stroke-miterlimit:4;" d="M 573.65625 60.78125 L 556.28125 72.28125 L 559.09375 133.5625 L 579.625 146.875 L 607.15625 147.65625 L 624.53125 136.28125 L 620.71875 75.78125 L 600.5 62.8125 Z M 583.59375 78.59375 L 592.28125 78.9375 L 598.9375 82.5625 L 602.09375 127.59375 L 596.5625 130.28125 L 587.53125 129.9375 L 580.75 125.21875 L 577.59375 81.75 Z M 583.59375 78.59375 "/>
<path style="fill-rule:evenodd;fill:rgb(0%,0%,0%);fill-opacity:1;stroke-width:0.319612;stroke-linecap:butt;stroke-linejoin:miter;stroke:rgb(0%,0%,0%);stroke-opacity:1;stroke-miterlimit:4;" d="M 654 55.03125 L 658.75 141.8125 L 705.78125 143.03125 L 726.21875 130.28125 L 722.375 67.875 L 700.59375 55.6875 Z M 677.6875 72.625 L 692.6875 72.75 L 699.46875 76.6875 L 702.1875 121.59375 L 696.65625 125.21875 L 680.84375 124.75 Z M 677.6875 72.625 "/>
</g>
</svg>
